<?xml version="1.0" encoding="UTF-8"?>
<svg id="Layer_2" data-name="Layer 2" xmlns="http://www.w3.org/2000/svg" viewBox="0 0 763.52 714.47">
  <defs>
    <style>
      .cls-1 {
        stroke: #fff;
        stroke-width: 8px;
      }

      .cls-1, .cls-2 {
        stroke-miterlimit: 10;
      }

      .cls-1, .cls-2, .cls-3 {
        fill: #3d85a8;
      }

      .cls-2 {
        stroke: #3d85a8;
        stroke-linecap: round;
        stroke-width: 26px;
      }

      .cls-3 {
        stroke-width: 0px;
      }
    </style>
  </defs>
  <g id="Layer_1-2" data-name="Layer 1">
    <g>
      <g>
        <g>
          <line class="cls-2" x1="381.76" y1="158.87" x2="619.63" y2="303.57"/>
          <line class="cls-2" x1="381.76" y1="158.87" x2="143.89" y2="303.57"/>
        </g>
        <path class="cls-3" d="m580.07,308.23v199.51c0,27.51-27.13,50.01-60.29,50.01h-71.94v-142.58h-132.17v142.58h-71.94c-33.16,0-60.29-22.51-60.29-50.01v-199.51l198.29-120.66,198.34,120.66Z"/>
        <g>
          <path class="cls-1" d="m476.77,110.66c7.95-2.22,59.28,24.32,72.83,61.02,16.01,43.37-36.45,58.38-42.29,118.23-4.92,50.38,27.99,83.44,18.8,85.17-10.01,1.89-63.77-34.53-67.91-80.2-4.56-50.37,55.44-65.67,49.34-119.5-4.32-38.09-38.02-62.69-30.77-64.72Z"/>
          <path class="cls-3" d="m443.01.07c4.16-1.16,31.05,12.74,38.15,31.96,8.39,22.71-19.09,30.58-22.15,61.92-2.57,26.38,14.66,43.7,9.84,44.61-5.24.99-33.4-18.09-35.57-42.01-2.39-26.38,29.04-34.39,25.84-62.59-2.26-19.95-19.91-32.84-16.12-33.9Z"/>
          <path class="cls-3" d="m600.47,49.02c-4.16-1.16-31.05,12.74-38.15,31.96-8.39,22.71,19.09,30.58,22.15,61.92,2.57,26.38-14.66,43.7-9.84,44.61,5.24.99,33.4-18.09,35.57-42.01,2.39-26.38-29.04-34.39-25.84-62.59,2.26-19.95,19.91-32.84,16.12-33.9Z"/>
        </g>
        <path class="cls-3" d="m427.33,455.94l.68.68c11.91,11.91,11.91,31.23,0,43.15l-30.3,30.3c-8.92,8.92-23.39,8.92-32.32,0l-29.61-29.61c-12.29-12.29-12.29-32.22,0-44.51h0c11.91-11.91,31.23-11.91,43.15,0l2.63,2.63,2.63-2.63c11.91-11.91,31.23-11.91,43.15,0Z"/>
      </g>
      <g>
        <path class="cls-3" d="m60.82,659.23c-.38,2.56-.84,6.14-1.38,10.72-.54,4.58-.9,8.14-1.09,10.66-6.77,1.39-12.81,2.09-18.12,2.09s-9.89-.88-14.3-2.65c-4.41-1.76-8.46-4.66-12.14-8.69-3.68-4.03-6.32-8.77-7.9-14.22-1.58-5.45-2.37-11.55-2.37-18.31,0-7.89,1.07-14.98,3.2-21.28,2.13-6.3,5.2-11.55,9.2-15.76,4-4.21,8.39-7.21,13.16-9.02,4.77-1.81,9.71-2.71,14.8-2.71,4.68,0,10.47.83,17.36,2.48l.09,5.49c.06,2.4.16,5.03.28,7.91l.33,7.45c-3.7-1.22-6.7-2.05-8.99-2.48-2.29-.43-4.42-.65-6.38-.65-4.27,0-8.11,1.18-11.53,3.53s-6.1,5.78-8.06,10.26c-1.96,4.49-2.94,9.46-2.94,14.91,0,4.97.82,9.23,2.47,12.78,1.64,3.55,3.87,6.3,6.67,8.24,2.8,1.94,6.25,2.91,10.37,2.91,2.25,0,4.69-.25,7.33-.75,2.64-.5,5.95-1.47,9.94-2.91Z"/>
        <path class="cls-3" d="m109.06,590.06c5.06,0,9.93.94,14.61,2.81,4.68,1.88,8.78,4.87,12.29,8.99,3.51,4.12,6.13,8.86,7.87,14.22,1.74,5.36,2.61,11.53,2.61,18.5,0,7.32-.96,14.04-2.87,20.17-1.91,6.12-4.67,11.32-8.28,15.59-3.61,4.27-7.91,7.4-12.9,9.38-5,1.98-10.2,2.97-15.61,2.97s-10.47-.97-15.37-2.91c-4.9-1.94-9.16-5.08-12.78-9.42-3.62-4.34-6.19-9.16-7.71-14.48s-2.28-11.22-2.28-17.72c0-9.54,1.6-17.92,4.81-25.14,3.21-7.21,7.97-12.85,14.28-16.9,6.31-4.05,13.42-6.08,21.32-6.08Zm-.85,19.68c-3.64,0-6.93,1.23-9.87,3.69-2.94,2.46-5.2,5.88-6.78,10.26-1.58,4.38-2.37,9.08-2.37,14.09,0,4.62.72,8.85,2.16,12.68,1.44,3.84,3.63,6.83,6.57,8.99,2.94,2.16,6.06,3.24,9.35,3.24,3.51,0,6.73-1.21,9.65-3.63,2.92-2.42,5.15-5.82,6.69-10.2,1.53-4.38,2.3-8.97,2.3-13.76s-.71-8.97-2.13-12.91c-1.42-3.94-3.51-7-6.26-9.19-2.75-2.18-5.85-3.27-9.3-3.27Z"/>
        <path class="cls-3" d="m153.56,681c.79-10.29,1.37-18.67,1.71-25.17.67-11.85,1.17-23.63,1.5-35.34.33-11.7.5-21.28.5-28.73,4.3.09,8.11.13,11.42.13,2.24,0,5.47-.04,9.67-.13l-1.14,23.67-1.43,37-.19,9.09c5.44.13,8.98.2,10.63.2,8.32,0,14.62-.15,18.89-.46l-1.04,19.74c-8.32-.09-16.24-.13-23.77-.13-10.18,0-19.1.04-26.75.13Z"/>
        <path class="cls-3" d="m210.48,681c.79-10.29,1.37-18.67,1.71-25.17.67-11.85,1.17-23.63,1.5-35.34.33-11.7.5-21.28.5-28.73,4.3.09,8.11.13,11.42.13,2.24,0,5.47-.04,9.67-.13l-1.14,23.67-1.43,37-.19,9.09c5.44.13,8.98.2,10.63.2,8.32,0,14.62-.15,18.89-.46l-1.04,19.74c-8.32-.09-16.24-.13-23.77-.13-10.18,0-19.1.04-26.75.13Z"/>
        <path class="cls-3" d="m267.84,681c.79-11.25,1.37-20.66,1.74-28.24.36-7.58.73-17.66,1.09-30.24.36-12.57.55-20.91.55-25.01l-.05-5.75c7.46.09,16.49.13,27.08.13,9.77,0,18.39-.04,25.85-.13l-.09,2.15c-.03.52-.11,2.41-.24,5.67l-.28,7.1c-.06,1.52-.09,3.06-.09,4.63-6.1-.35-11.23-.52-15.37-.52-4.55,0-7.63.01-9.23.03-1.6.02-4.09.12-7.47.29l-.58,15.04c3.73.13,8.08.2,13.05.2,1.77,0,6.48-.15,14.14-.46-.32,5.58-.62,12.23-.9,19.94-5.47-.09-9.67-.13-12.61-.13-4.36,0-9.25.15-14.65.46l-.56,15.89h5.45c1.61,0,4.95-.07,10-.2l9.81-.33c1.45-.04,3.89-.22,7.3-.52-.38,6.45-.7,13.12-.95,20-7.72-.09-16.18-.13-25.38-.13l-20.87.07-6.74.07Z"/>
        <path class="cls-3" d="m388,659.23c-.38,2.56-.84,6.14-1.38,10.72-.54,4.58-.9,8.14-1.09,10.66-6.77,1.39-12.81,2.09-18.12,2.09s-9.89-.88-14.3-2.65c-4.41-1.76-8.46-4.66-12.14-8.69-3.68-4.03-6.32-8.77-7.9-14.22-1.58-5.45-2.37-11.55-2.37-18.31,0-7.89,1.07-14.98,3.2-21.28,2.13-6.3,5.2-11.55,9.2-15.76,4-4.21,8.39-7.21,13.16-9.02,4.77-1.81,9.71-2.71,14.8-2.71,4.68,0,10.47.83,17.36,2.48l.1,5.49c.06,2.4.16,5.03.29,7.91l.33,7.45c-3.7-1.22-6.7-2.05-8.99-2.48-2.29-.43-4.42-.65-6.38-.65-4.27,0-8.11,1.18-11.53,3.53s-6.1,5.78-8.06,10.26c-1.96,4.49-2.94,9.46-2.94,14.91,0,4.97.82,9.23,2.47,12.78,1.64,3.55,3.87,6.3,6.67,8.24,2.8,1.94,6.25,2.91,10.37,2.91,2.25,0,4.69-.25,7.33-.75,2.64-.5,5.95-1.47,9.94-2.91Z"/>
        <path class="cls-3" d="m411.48,681c1.57-21.18,2.51-44.5,2.83-69.95l-20.19.72.24-7.26c.12-3.88.22-8.13.28-12.75,8.98.09,19.44.13,31.39.13l11.71-.07h11.38l6.17-.07-.29,6.4c-.13,3.43-.21,6.27-.26,8.52-.05,2.25-.07,3.94-.07,5.08-6.76-.48-12.34-.72-16.73-.72h-3.32c-.48,7.7-.84,14.81-1.1,21.34-.35,9.35-.62,18.43-.81,27.24-.19,8.81-.29,15.93-.29,21.37-5.18-.09-8.53-.13-10.05-.13-1.36,0-4.99.04-10.9.13Z"/>
        <path class="cls-3" d="m458.92,681c1.82-35,2.73-61.93,2.73-80.81l-.05-8.43c5.54.09,9.24.13,11.11.13.86,0,4.26-.04,10.21-.13-.57,9.81-1.03,19.09-1.38,27.85-.45,12.2-.76,23.61-.95,34.22-.19,10.61-.29,19.67-.29,27.16l-9.72-.13c-1.9,0-5.79.04-11.66.13Z"/>
        <path class="cls-3" d="m548,659.23c-.38,2.56-.84,6.14-1.38,10.72-.54,4.58-.9,8.14-1.09,10.66-6.77,1.39-12.81,2.09-18.12,2.09s-9.89-.88-14.3-2.65c-4.41-1.76-8.46-4.66-12.14-8.69-3.69-4.03-6.32-8.77-7.9-14.22-1.58-5.45-2.37-11.55-2.37-18.31,0-7.89,1.07-14.98,3.2-21.28,2.13-6.3,5.2-11.55,9.2-15.76,4-4.21,8.39-7.21,13.16-9.02s9.71-2.71,14.8-2.71c4.68,0,10.47.83,17.36,2.48l.1,5.49c.06,2.4.16,5.03.28,7.91l.33,7.45c-3.7-1.22-6.7-2.05-8.99-2.48-2.29-.43-4.42-.65-6.38-.65-4.27,0-8.11,1.18-11.53,3.53s-6.1,5.78-8.06,10.26c-1.96,4.49-2.94,9.46-2.94,14.91,0,4.97.82,9.23,2.47,12.78,1.64,3.55,3.87,6.3,6.66,8.24,2.8,1.94,6.25,2.91,10.37,2.91,2.25,0,4.69-.25,7.33-.75,2.64-.5,5.95-1.47,9.94-2.91Z"/>
        <path class="cls-3" d="m548.57,681l3.94-9.41,24.54-63.68,2.61-7.13c.76-2.09,1.82-5.1,3.18-9.02,5.57.09,9.63.13,12.19.13,4.46,0,8.58-.04,12.38-.13l6.92,27.26,14.08,52.43,2.75,9.54c-5.48-.09-8.8-.13-9.97-.13-2.66,0-6.57.04-11.73.13-1.39-7.19-3.39-15.65-6.01-25.37h-23.88c-2.75,7.67-5.59,16.13-8.53,25.37-5.89-.09-9.5-.13-10.83-.13-2.41,0-6.29.04-11.63.13Zm36.73-44.39h14.73c-3.66-15.36-5.67-23.82-6.01-25.39-2.09,6.4-3.86,11.64-5.31,15.73l-3.41,9.66Z"/>
        <path class="cls-3" d="m636.05,681c.6-7.67,1.08-14.58,1.43-20.72.35-6.15.65-13.27.9-21.38s.44-16.66.57-25.66.19-16.16.19-21.48c3.95.13,7.15.2,9.58.2s5.61-.1,9.25-.29,7.18-.29,10.62-.29c4.05,0,7.65.22,10.81.65,2.37.31,4.53.94,6.47,1.9,1.95.96,3.58,2.12,4.91,3.5s2.43,2.91,3.32,4.61c.89,1.7,1.57,3.69,2.06,5.98s.73,4.74.73,7.36c0,2.92-.27,5.65-.8,8.2-.54,2.55-1.38,4.95-2.54,7.19-1.15,2.25-2.61,4.18-4.36,5.82-1.76,1.63-4.21,3.3-7.38,5l2.47,8.3c.7,2.31,1.44,4.66,2.23,7.06l6.36,19.16c.29.83.79,2.46,1.52,4.9-5.21-.09-8.72-.13-10.52-.13-2.28,0-6.01.04-11.19.13-.51-2.27-1.43-6.47-2.76-12.62-.54-2.57-1-4.55-1.38-5.95-.76-3.09-1.88-7.43-3.37-13.01l-4.89-18.5c1.71.44,3.38.65,5.03.65,2.31,0,4.4-.48,6.29-1.44,1.88-.96,3.3-2.44,4.27-4.45.96-2,1.45-4.12,1.45-6.34,0-1.87-.36-3.52-1.09-4.94-.73-1.42-1.88-2.47-3.44-3.17-1.57-.7-3.98-1.05-7.23-1.05-1.11,0-2.25.03-3.44.1s-2.57.12-4.15.16c-.41,8.93-.77,19.83-1.08,32.69-.31,12.86-.52,25.48-.61,37.85-5.29-.09-8.72-.13-10.3-.13-1.84,0-5.15.04-9.93.13Z"/>
        <path class="cls-3" d="m704.17,681c.79-11.25,1.37-20.66,1.74-28.24.36-7.58.73-17.66,1.09-30.24.36-12.57.55-20.91.55-25.01l-.05-5.75c7.46.09,16.49.13,27.08.13,9.77,0,18.39-.04,25.85-.13l-.1,2.15c-.03.52-.11,2.41-.24,5.67l-.29,7.1c-.06,1.52-.1,3.06-.1,4.63-6.1-.35-11.23-.52-15.37-.52-4.55,0-7.63.01-9.23.03-1.6.02-4.09.12-7.47.29l-.58,15.04c3.73.13,8.08.2,13.05.2,1.77,0,6.49-.15,14.14-.46-.32,5.58-.62,12.23-.9,19.94-5.47-.09-9.67-.13-12.61-.13-4.36,0-9.24.15-14.65.46l-.56,15.89h5.45c1.61,0,4.95-.07,10-.2l9.81-.33c1.45-.04,3.89-.22,7.3-.52-.38,6.45-.7,13.12-.95,20-7.72-.09-16.18-.13-25.38-.13l-20.87.07-6.74.07Z"/>
      </g>
    </g>
  </g>
</svg>